inDegrees=no
num_controls=7
num_derivatives=13
num_iterations=134
num_multipliers=7
num_parameters=0
num_slacks=7
num_states=26
objective=0.475102
objective_accelerations=0.047266
objective_balance=0.003674
objective_effort=0.042624
objective_height=0.375885
objective_ligament=0.005654
solver_duration=1920.237470
status=Solve_Succeeded
success=true
DataType=double
version=3
OpenSimVersion=4.5
endheader
time	/jointset/ground_pelvis/pelvis_tilt/value	/jointset/ground_pelvis/pelvis_tx/value	/jointset/ground_pelvis/pelvis_ty/value	/jointset/hip_l/hip_flexion_l/value	/jointset/hip_l/hip_adduction_l/value	/jointset/hip_l/hip_rotation_l/value	/jointset/back/lumbar_extension/value	/jointset/patellofemoral_l/patellar_flexion_l/value	/jointset/knee_l/knee_flexion_l/value	/jointset/knee_l/knee_adduction_l/value	/jointset/knee_l/knee_rotation_l/value	/jointset/ankle_l/ankle_angle_l/value	/jointset/subtalar_l/subtalar_angle_l/value	/jointset/ground_pelvis/pelvis_tilt/speed	/jointset/ground_pelvis/pelvis_tx/speed	/jointset/ground_pelvis/pelvis_ty/speed	/jointset/hip_l/hip_flexion_l/speed	/jointset/hip_l/hip_adduction_l/speed	/jointset/hip_l/hip_rotation_l/speed	/jointset/back/lumbar_extension/speed	/jointset/patellofemoral_l/patellar_flexion_l/speed	/jointset/knee_l/knee_flexion_l/speed	/jointset/knee_l/knee_adduction_l/speed	/jointset/knee_l/knee_rotation_l/speed	/jointset/ankle_l/ankle_angle_l/speed	/jointset/subtalar_l/subtalar_angle_l/speed	/forceset/tau_hip_flexion_l	/forceset/tau_hip_adduction_l	/forceset/tau_hip_rotation_l	/forceset/tau_knee_flexion_l	/forceset/tau_ankle_angle_l	/forceset/tau_subtalar_angle_l	/forceset/tau_lumbar_extension	lambda_cid13_p0	lambda_cid13_p1	lambda_cid13_p2	lambda_cid13_p3	lambda_cid13_p4	lambda_cid13_p5	lambda_cid14_p0	/jointset/ground_pelvis/pelvis_tilt/accel	/jointset/ground_pelvis/pelvis_tx/accel	/jointset/ground_pelvis/pelvis_ty/accel	/jointset/hip_l/hip_flexion_l/accel	/jointset/hip_l/hip_adduction_l/accel	/jointset/hip_l/hip_rotation_l/accel	/jointset/back/lumbar_extension/accel	/jointset/patellofemoral_l/patellar_flexion_l/accel	/jointset/knee_l/knee_flexion_l/accel	/jointset/knee_l/knee_adduction_l/accel	/jointset/knee_l/knee_rotation_l/accel	/jointset/ankle_l/ankle_angle_l/accel	/jointset/subtalar_l/subtalar_angle_l/accel	gamma_cid13_p0	gamma_cid13_p1	gamma_cid13_p2	gamma_cid13_p3	gamma_cid13_p4	gamma_cid13_p5	gamma_cid14_p0
1.5	0.001513224546381332	-0.01623302265627609	0.8438464379009708	0.7145917143708972	-0.3209714648939708	-0.1251751114655348	-0.8031731621259206	0.8179740826653078	0.8179740826641936	-0.09099538800572567	-0.1745274414558709	0.1632406248536347	0.02954837531707202	0.3364642871919769	0.2338913637196642	0.462092771673018	-2.088980182509775	0.07630676052900678	-0.6495376570315713	0.8357069425236056	-2.099483779816702	-2.09948377981683	-0.1768986177908674	-0.0001287861908927676	-0.4770184162481823	-0.08258738229172143	-0.2040185228283556	0.01682777528246095	-0.006694626652553863	-0.2348476430959494	0.06691386915007777	0.04625913059118934	0.2845346624020661	-20.21995107889176	-18.90249606196409	5.246414104433159	-9.137702809015844	-668.3429015840275	-79.69485175183731	-13.79715820543401	0.03671976598897289	0.7205937755862561	-0.6570242227678283	-0.8030314014146533	0.4833669845231777	-0.467213573032259	2.129450541303702	-1.109236332017648	-1.109236332017648	-0.2227636637318577	0.008345457164577092	-0.3459490153615299	0.4635692785704948	4.43700740674184e-07	6.488582460888775e-07	-2.268286446041714e-06	-1.457921869859803e-07	5.221837104070156e-07	5.428131859219756e-07	3.605304516249291e-07
1.51	0.004879577870597523	-0.01385828854221109	0.8484335878304294	0.6936635129788278	-0.3201853992570373	-0.1316920008265118	-0.7947111937389224	0.7969261339619501	0.796926133960802	-0.09277866991016391	-0.1745288294526446	0.1584535175733657	0.02874430654659018	0.3367576917798852	0.241030157204801	0.4552389410185745	-2.096383005160066	0.08090951595721192	-0.6537749318017732	0.8565663013593527	-2.109806318099177	-2.109806318099333	-0.1797469017269276	-0.0001434108290030753	-0.4803092057584943	-0.07819807279587719	-0.196464281607069	0.01596609100477812	-0.006459993319311659	-0.230676758130331	0.06752204562691876	0.04563742131623216	0.2771112066553011	-19.76196859778742	-18.76540019896836	5.284778610001187	-9.052359195830663	-663.3087033050946	-79.62150404643374	-14.58261292805951	0.01838865506265549	0.7067025144651637	-0.7141886214798217	-0.6672916391916547	0.4494171354231103	-0.3918188129774673	2.046113527204021	-0.9488909775879486	-0.9488909775920809	-0.3141589064241501	-0.005979622235359749	-0.3065331284309768	0.4309743106982576	4.537061225540432e-07	8.019480145130302e-07	-2.230621045743154e-06	-1.298822333314817e-07	5.565320100737409e-07	6.364339616623463e-07	3.694684240163542e-07
1.52	0.008247412810666562	-0.01141293041739717	0.8529492742264041	0.6726696065717845	-0.3193531686031306	-0.1382492298119836	-0.7860442447690681	0.7757839341955225	0.7757839341943406	-0.09459009428353851	-0.1745302863353859	0.1536363245560806	0.02798500337618817	0.3367606103626301	0.2480161658694504	0.447800064976243	-2.102121185504571	0.08553976392357412	-0.6576055819305079	0.8767030590948516	-2.118333992430673	-2.118333992430857	-0.1825271115782298	-0.0001425633845743503	-0.4830355636514037	-0.07363426227575834	-0.1889100403857811	0.01510440672709527	-0.006225359986064423	-0.2265058731647124	0.06813022210375955	0.04501571204127481	0.2696877509085372	-19.30269631583235	-18.62978559859904	5.324815429856008	-9.018304398641202	-658.294111952186	-79.61873618882012	-15.354881619202	-0.02137743504374588	0.6900368114887955	-0.7740333003454525	-0.470102940257544	0.488865492154598	-0.3858886447388101	1.984930321254008	-0.7502635418219508	-0.7502635418219493	-0.2091488467802603	0.01143987367239546	-0.233062691880959	0.4984694834254184	4.619973232993353e-07	9.784488741042675e-07	-2.184024215405821e-06	-1.105243902297318e-07	5.908511348788338e-07	7.309867487753872e-07	3.796649085232489e-07
1.53	0.01161386175354056	-0.008898528191245687	0.8573877532109079	0.6516264560340186	-0.3184746578641171	-0.1448429170332214	-0.7771797934379239	0.7545653233143477	0.7545653233134959	-0.09642912551711284	-0.1745318401419091	0.1487946462221101	0.02727201739464343	0.3364758993443195	0.2548330755475493	0.4398055313058478	-2.106226022897589	0.09015617195200896	-0.6610314697734129	0.896051164735867	-2.125082858257385	-2.12508285825686	-0.1852961622069306	-0.0001422609595099383	-0.4852032187271568	-0.06894532021917765	-0.1811738908530044	0.01406437435235311	-0.005966350670360699	-0.222801317526352	0.0691287295054918	0.0441306766599972	0.2621383076047873	-18.74904378644995	-18.38103048251917	5.329332340891049	-8.960040261929874	-653.5549294707869	-79.46973084601393	-16.11355756304763	-0.0399732783592574	0.6728224382510913	-0.825564794078619	-0.3381910119592786	0.4472444209716199	-0.3054822641704274	1.889344325800615	-0.5914787457147866	-0.5914787456084551	-0.3132050167429973	-0.002185691130382583	-0.1940339116110885	0.4567882448257375	4.6846720658915e-07	1.179824018060532e-06	-2.127937740652292e-06	-8.750316459027757e-08	6.251392613934421e-07	8.265297979718899e-07	3.9119856215283e-07
